<svg xmlns="http://www.w3.org/2000/svg" width="151.852" height="80.691" viewBox="0 0 151.852 80.691">
  <defs>
    <style>
      .cls-1, .cls-4 {
        fill: #fff;
      }

      .cls-1, .cls-2, .cls-3 {
        fill-rule: evenodd;
      }

      .cls-2 {
        fill: #0f4f99;
      }

      .cls-3 {
        fill: #063157;
      }

      .cls-4 {
        font-size: 30px;
        font-family: OpenSans-Bold, Open Sans;
        font-weight: 700;
        letter-spacing: 0.009em;
      }
    </style>
  </defs>
  <g id="Flip_logo" data-name="Flip logo" transform="translate(-105.148 -327.976)">
    <g id="Group_196" data-name="Group 196" transform="translate(105.148 327.976)">
      <path id="Path_1" data-name="Path 1" class="cls-1" d="M725.217,1370.264a40.334,40.334,0,1,1-6.94-22.631q.723,1.063,1.378,2.177A40.153,40.153,0,0,1,725.217,1370.264Z" transform="translate(-644.526 -1329.919)"/>
      <path id="Path_4" data-name="Path 4" class="cls-2" d="M770.056,1379.824H734.537c-10.745,0-13.767,5.706-17.248,13.387l-3.886,8.573c.17-.15.342-.3.516-.439a7.363,7.363,0,0,1,1-.768c.2-.144.4-.285.606-.419a16.548,16.548,0,0,1,6.6-2.37,49.391,49.391,0,0,1,7.385-.526c.211,0,.426-.007.642-.007H748.4c13.44-.013,19.794-9.307,21.658-17.431Z" transform="translate(-694.792 -1366.339)"/>
      <path id="Path_5" data-name="Path 5" class="cls-2" d="M714.082,1450.462c-4.411,10.567-7.925,14.477-21.393,14.212-6.54-.129-12.966.632-17.141,5.139-4.265,4.6-4.377,12.45,1.71,15.282H667.05c-2.969,0-2.819-1.912-1.69-4.4L674.738,1460a17.6,17.6,0,0,1,6.089-6.908,14.956,14.956,0,0,1,5.95-2.114,55.882,55.882,0,0,1,8.824-.512Z" transform="translate(-659.185 -1417.891)"/>
      <path id="Path_6" data-name="Path 6" class="cls-3" d="M720.094,1509.163l-7.032,15.288c-1.865,3.659-3.082,3.464-5.9,3.464h-.2a11.652,11.652,0,0,1-4.232-2.389c-3.4-3.1-2.876-8.511.142-11.768,3.966-4.282,10.425-4.716,15.893-4.609q.66.013,1.331.014Z" transform="translate(-685.292 -1460.71)"/>
    </g>
    <text id="FLIP" class="cls-4" transform="translate(225 380)"><tspan x="-31.496" y="0">FLIP</tspan></text>
  </g>
</svg>
