<svg xmlns="http://www.w3.org/2000/svg" width="80.704" height="80.704" viewBox="0 0 80.704 80.704">
  <defs>
    <style>
      .cls-1 {
        fill: #0f4f99;
      }

      .cls-1, .cls-2, .cls-3, .cls-4 {
        fill-rule: evenodd;
      }

      .cls-2 {
        fill: #063157;
        opacity: 0.4;
      }

      .cls-3 {
        fill: #fff;
      }

      .cls-4 {
        fill: #e9e8e8;
      }
    </style>
  </defs>
  <g id="flip_icon" data-name="flip icon" transform="translate(-167 -58.962)">
    <path id="Path_7" data-name="Path 7" class="cls-1" d="M787.523,441.406a40.341,40.341,0,1,1-6.941-22.635q.723,1.064,1.377,2.177A40.159,40.159,0,0,1,787.523,441.406Z" transform="translate(-539.819 -342.092)"/>
    <path id="Path_8" data-name="Path 8" class="cls-2" d="M840.305,485.687a40.368,40.368,0,0,1-58.608,36,45.333,45.333,0,0,1,51.667-58.631A40.164,40.164,0,0,1,840.305,485.687Z" transform="translate(-592.814 -386.736)"/>
    <path id="Path_9" data-name="Path 9" class="cls-2" d="M895.7,478.563a40.367,40.367,0,0,1-31.736,39.43,45.341,45.341,0,0,1,13.529-65.524,40.113,40.113,0,0,1,12.643,5.636A40.16,40.16,0,0,1,895.7,478.563Z" transform="translate(-648.204 -379.612)"/>
    <g id="Group_3" data-name="Group 3" transform="translate(172.428 72.449)">
      <path id="Path_10" data-name="Path 10" class="cls-3" d="M832.357,450.959H796.833c-10.747,0-13.77,5.707-17.251,13.389l-3.887,8.574q.255-.225.516-.439a7.369,7.369,0,0,1,1-.768q.3-.217.606-.419a16.557,16.557,0,0,1,6.6-2.37,49.442,49.442,0,0,1,7.386-.526c.211,0,.426-.008.642-.008H810.7c13.442-.013,19.8-9.308,21.662-17.434Z" transform="translate(-762.509 -450.959)"/>
      <path id="Path_11" data-name="Path 11" class="cls-3" d="M776.382,521.6c-4.412,10.569-7.926,14.479-21.4,14.214-6.541-.129-12.968.632-17.143,5.14-4.265,4.605-4.377,12.452,1.71,15.285H729.343c-2.969,0-2.82-1.912-1.691-4.4l9.38-20.7a17.6,17.6,0,0,1,6.09-6.909,14.952,14.952,0,0,1,5.951-2.115,55.9,55.9,0,0,1,8.826-.512Z" transform="translate(-726.905 -502.507)"/>
      <path id="Path_12" data-name="Path 12" class="cls-4" d="M782.39,580.3l-7.033,15.29c-1.865,3.659-3.083,3.464-5.9,3.464h-.2a11.655,11.655,0,0,1-4.232-2.389c-3.4-3.1-2.876-8.512.142-11.77,3.967-4.283,10.427-4.717,15.9-4.609q.66.013,1.331.015Z" transform="translate(-753.01 -545.323)"/>
    </g>
  </g>
</svg>
